<svg xmlns="http://www.w3.org/2000/svg" width="1024" height="1024" viewBox="0 0 256 256"><rect width="256" height="256" fill="#0b0a09"/><defs><radialGradient id="bg-r1" cx="30%" cy="14%" r="100%"><stop offset="0" stop-color="#2d2620"/><stop offset="0.5" stop-color="#15110c"/><stop offset="1" stop-color="#060403"/></radialGradient><radialGradient id="halo-r1" cx="50%" cy="62%" r="55%"><stop offset="0" stop-color="#f4794a" stop-opacity="0.77"/><stop offset="0.45" stop-color="#f4794a" stop-opacity="0.22399999999999998"/><stop offset="1" stop-color="#f4794a" stop-opacity="0"/></radialGradient><radialGradient id="vig-r1" cx="50%" cy="55%" r="68%"><stop offset="0.55" stop-color="rgba(0,0,0,0)"/><stop offset="1" stop-color="rgba(0,0,0,0.6)"/></radialGradient></defs><rect width="256" height="256" rx="58" fill="url(#bg-r1)"/><ellipse cx="128" cy="170" rx="135" ry="90" fill="url(#halo-r1)"/><defs><radialGradient id="body-r1" cx="38%" cy="36%" r="80%"><stop offset="0" stop-color="#ffe4b4"/><stop offset="0.08" stop-color="#ffae6e"/><stop offset="0.25" stop-color="#ff7a30"/><stop offset="0.55" stop-color="#d04618"/><stop offset="0.85" stop-color="#5e1c0a"/><stop offset="1" stop-color="#1c0604"/></radialGradient><linearGradient id="leafL-r1" x1="100%" y1="0%" x2="0%" y2="100%"><stop offset="0" stop-color="#b8a878"/><stop offset="0.5" stop-color="#8a7a4c"/><stop offset="1" stop-color="#4e4220"/></linearGradient><linearGradient id="leafR-r1" x1="0%" y1="0%" x2="100%" y2="100%"><stop offset="0" stop-color="#b8a878"/><stop offset="0.5" stop-color="#8a7a4c"/><stop offset="1" stop-color="#4e4220"/></linearGradient><linearGradient id="leafB-r1" x1="0%" y1="0%" x2="0%" y2="100%"><stop offset="0" stop-color="#8a7a4c"/><stop offset="1" stop-color="#4e4220"/></linearGradient><linearGradient id="leafF-r1" x1="0%" y1="0%" x2="0%" y2="100%"><stop offset="0" stop-color="#4e4220"/><stop offset="1" stop-color="#8a7a4c"/></linearGradient><linearGradient id="leafEdge-r1" x1="0%" y1="0%" x2="100%" y2="0%"><stop offset="0" stop-color="#3a2e10" stop-opacity="0"/><stop offset="0.5" stop-color="#3a2e10"/><stop offset="1" stop-color="#3a2e10" stop-opacity="0"/></linearGradient><linearGradient id="stem-r1" x1="0%" y1="0%" x2="0%" y2="100%"><stop offset="0" stop-color="#8c6238"/><stop offset="1" stop-color="#3a2412"/></linearGradient></defs><ellipse cx="128" cy="230" rx="92" ry="10" fill="#000" opacity="0.55"/><ellipse cx="128" cy="232" rx="68" ry="5" fill="#000" opacity="0.45"/><path d="M128 106 C 192 106 222 130 222 162 C 222 196 184 220 128 220 C 72 220 34 196 34 162 C 34 130 64 106 128 106 Z" fill="url(#body-r1)"/><path d="M 128 112 C 124 140 124 184 128 216" fill="none" stroke="rgba(0,0,0,0.35)" stroke-width="1.2" stroke-linecap="round" opacity="0.22"/><path d="M 130 112 C 134 140 134 184 130 216" fill="none" stroke="rgba(255,220,170,0.3)" stroke-width="0.8" stroke-linecap="round" opacity="0.154"/><path d="M 50 144 C 60 122 92 110 128 110 C 164 110 196 122 206 144" fill="none" stroke="#fff" stroke-width="3" stroke-linecap="round" opacity="0.9"/><path d="M 60 138 C 72 122 96 114 128 114 C 160 114 184 122 196 138" fill="none" stroke="rgba(255,255,255,0.85)" stroke-width="1" stroke-linecap="round" opacity="1"/><ellipse cx="92" cy="150" rx="30" ry="13" fill="#fff" opacity="0.57" transform="rotate(-18 92 150)"/><ellipse cx="88" cy="146" rx="10" ry="4" fill="#fff" opacity="0.95" transform="rotate(-18 88 146)"/><ellipse cx="84" cy="143" rx="3" ry="1.5" fill="#fff" opacity="0.95"/><ellipse cx="178" cy="148" rx="10" ry="4" fill="#fff" opacity="0.38" transform="rotate(20 178 148)"/><ellipse cx="128" cy="118" rx="86" ry="14" fill="#3a1808" opacity="0.65"/><g opacity="1"><path d="M 128 108 C 116 108 100 110 84 116 C 64 122 50 124 52 116 C 58 100 80 90 102 90 C 116 90 124 96 128 108 Z" fill="url(#leafL-r1)"/><path d="M 64 110 C 76 104 90 100 102 100" fill="none" stroke="url(#leafEdge-r1)" stroke-width="1.2" opacity="0.7"/><path d="M 128 108 C 140 108 156 110 172 116 C 192 122 206 124 204 116 C 198 100 176 90 154 90 C 140 90 132 96 128 108 Z" fill="url(#leafR-r1)"/><path d="M 192 110 C 180 104 166 100 154 100" fill="none" stroke="url(#leafEdge-r1)" stroke-width="1.2" opacity="0.7"/><path d="M 128 106 C 122 92 116 78 120 64 C 124 56 132 56 136 64 C 140 78 134 92 128 106 Z" fill="url(#leafB-r1)"/><path d="M 110 110 C 116 124 122 130 128 130 C 134 130 140 124 146 110 C 138 116 118 116 110 110 Z" fill="url(#leafF-r1)"/><path d="M 70 112 C 82 108 96 105 108 102 M 188 112 C 176 108 162 105 150 102 M 126 70 L 126 100 M 130 70 L 130 100" stroke="rgba(60,45,20,0.45)" stroke-width="0.7" fill="none" stroke-linecap="round"/></g><g><path d="M 122 88 C 122 76 134 76 134 88 Z" fill="url(#stem-r1)"/><path d="M 128 76 C 132 76 134 80 134 88 L 128 88 Z" fill="rgba(0,0,0,0.35)"/><path d="M 124 78 C 122 82 122 86 123 88" fill="none" stroke="rgba(255,220,170,0.55)" stroke-width="0.8"/><ellipse cx="128" cy="90" rx="7" ry="2" fill="#2a1a08" opacity="0.7"/></g><rect width="256" height="256" rx="58" fill="url(#vig-r1)" pointer-events="none"/><rect x="1" y="1" width="254" height="254" rx="57" fill="none" stroke="rgba(255,160,120,0.06)" stroke-width="1"/></svg>